<svg width="13" height="13" viewBox="0 0 13 13" version="1.1" xmlns="http://www.w3.org/2000/svg" xmlns:xlink="http://www.w3.org/1999/xlink">
    <g id="Canvas" transform="translate(48 -2213)">
        <g id="github">
            <g id="pathGithub">
                <use xlink:href="#pathGithubFill" transform="matrix(0.133333 0 0 -0.133333 -48 2225.68)" fill="#333333" />
            </g>
        </g>
    </g>
    <defs>
        <path id="pathGithubFill" fill-rule="evenodd" d="M 48.7455 95.0935C 21.8289 95.0935 -1.46129e-05 73.2675 -1.46129e-05 46.3419C -1.46129e-05 24.8062 13.967 6.53272 33.339 0.0833919C 35.778 -0.362524 36.6669 1.14278 36.6669 2.43563C 36.6669 3.59382 36.625 6.65843 36.601 10.7255C 23.041 7.7807 20.18 17.2616 20.18 17.2616C 17.9623 22.8939 14.7661 24.3933 14.7661 24.3933C 10.3399 27.4159 15.1013 27.3561 15.1013 27.3561C 19.9944 27.0119 22.5681 22.3313 22.5681 22.3313C 26.9166 14.8824 33.9794 17.0342 36.7567 18.2822C 37.1996 21.4305 38.4595 23.5793 39.8511 24.7973C 29.0264 26.0303 17.6451 30.2111 17.6451 48.8917C 17.6451 54.2158 19.5455 58.5642 22.6639 61.9729C 22.1611 63.2059 20.4882 68.162 23.1428 74.8746C 23.1428 74.8746 27.2338 76.1855 36.5471 69.8798C 40.4347 70.9602 44.6066 71.4989 48.7515 71.5198C 52.8934 71.4989 57.0623 70.9602 60.9558 69.8798C 70.2632 76.1855 74.3483 74.8746 74.3483 74.8746C 77.0088 68.162 75.3359 63.2059 74.8361 61.9729C 77.9605 58.5642 79.8459 54.2158 79.8459 48.8917C 79.8459 30.1632 68.4466 26.0423 57.589 24.8362C 59.3368 23.3309 60.896 20.3561 60.896 15.8072C 60.896 9.29202 60.8361 4.03375 60.8361 2.43563C 60.8361 1.1308 61.716 -0.38646 64.188 0.0893832C 83.5449 6.55068 97.5 24.8092 97.5 46.3419C 97.5 73.2675 75.6711 95.0935 48.7455 95.0935Z" />
    </defs>
</svg>
