<svg width="13" height="13" viewBox="0 0 13 13" version="1.1" xmlns="http://www.w3.org/2000/svg" xmlns:xlink="http://www.w3.org/1999/xlink">
    <g id="Canvas" transform="translate(48 -2188)">
        <g id="instagram">
            <g id="pathInstagram3">
                <use xlink:href="#pathInstagramFill3" transform="matrix(0.133333 0 0 -0.133333 -48 2201)" fill="#333333" />
            </g>
            <g id="pathInstagram2">
                <use xlink:href="#pathInstagramFill2" transform="matrix(0.133333 0 0 -0.133333 -44.8378 2197.84)" fill="#333333" />
            </g>
            <g id="pathInstagram1">
                <use xlink:href="#pathInstagramFill1" transform="matrix(0.133333 0 0 -0.133333 -38.8103 2191.81)" fill="#333333" />
            </g>
        </g>
    </g>
    <defs>
        <path id="pathInstagramFill3" d="M 48.7501 97.5C 35.5103 97.5 33.8501 97.4439 28.6504 97.2066C 23.4616 96.97 19.9178 96.1458 16.8168 94.9408C 13.6111 93.6949 10.8925 92.028 8.18221 89.3179C 5.47204 86.6077 3.80511 83.8888 2.55929 80.6831C 1.35422 77.5822 0.53012 74.0384 0.293295 68.8496C 0.0560887 63.6499 0 61.9897 0 48.7499C 0 35.5103 0.0560887 33.8501 0.293295 28.6504C 0.53012 23.4616 1.35422 19.9178 2.55929 16.8169C 3.80511 13.6112 5.47204 10.8925 8.18221 8.18213C 10.8925 5.47198 13.6111 3.80504 16.8168 2.55922C 19.9178 1.35422 23.4616 0.530045 28.6504 0.29337C 33.8501 0.0561642 35.5103 0 48.7501 0C 61.9897 0 63.6499 0.0561642 68.8496 0.29337C 74.0384 0.530045 77.5822 1.35422 80.6831 2.55922C 83.8888 3.80504 86.6075 5.47198 89.3179 8.18213C 92.028 10.8925 93.6949 13.6112 94.9408 16.8169C 96.1458 19.9178 96.97 23.4616 97.2066 28.6504C 97.4439 33.8501 97.5 35.5103 97.5 48.7499C 97.5 61.9897 97.4439 63.6499 97.2066 68.8496C 96.97 74.0384 96.1458 77.5822 94.9408 80.6831C 93.6949 83.8888 92.028 86.6077 89.3179 89.3179C 86.6075 92.028 83.8888 93.6949 80.6831 94.9408C 77.5822 96.1458 74.0384 96.97 68.8496 97.2066C 63.6499 97.4439 61.9897 97.5 48.7501 97.5ZM 48.7501 88.7162C 61.7668 88.7162 63.3087 88.6665 68.4492 88.432C 73.2023 88.2152 75.7835 87.421 77.5014 86.7534C 79.7769 85.8691 81.4008 84.8127 83.1067 83.1069C 84.8127 81.4008 85.8691 79.7769 86.7534 77.5014C 87.421 75.7835 88.2152 73.2023 88.432 68.4492C 88.6665 63.3087 88.7162 61.7668 88.7162 48.7499C 88.7162 35.7332 88.6665 34.1913 88.432 29.0508C 88.2152 24.2977 87.421 21.7165 86.7534 19.9986C 85.8691 17.7231 84.8127 16.0992 83.1067 14.3933C 81.4008 12.6873 79.7769 11.6309 77.5014 10.7466C 75.7835 10.079 73.2023 9.28479 68.4492 9.06808C 63.3095 8.8335 61.7677 8.78377 48.7501 8.78377C 35.7323 8.78377 34.1907 8.8335 29.0508 9.06808C 24.2977 9.28479 21.7165 10.079 19.9986 10.7466C 17.7231 11.6309 16.0992 12.6873 14.3933 14.3933C 12.6875 16.0992 11.6309 17.7231 10.7466 19.9986C 10.079 21.7165 9.28487 24.2977 9.068 29.0508C 8.83344 34.1913 8.78377 35.7332 8.78377 48.7499C 8.78377 61.7668 8.83344 63.3087 9.068 68.4492C 9.28487 73.2023 10.079 75.7835 10.7466 77.5014C 11.6309 79.7769 12.6874 81.4008 14.3932 83.1067C 16.0992 84.8127 17.7231 85.8691 19.9986 86.7534C 21.7165 87.421 24.2977 88.2152 29.0508 88.432C 34.1913 88.6665 35.7332 88.7162 48.7501 88.7162Z" />
        <path id="pathInstagramFill2" d="M 25.0339 8.78377C 16.0591 8.78377 8.78377 16.0591 8.78377 25.0337C 8.78377 34.0084 16.0591 41.2838 25.0339 41.2838C 34.0084 41.2838 41.2838 34.0084 41.2838 25.0337C 41.2838 16.0591 34.0084 8.78377 25.0339 8.78377ZM 25.0339 50.0675C 11.2079 50.0675 1.13387e-06 38.8596 1.13387e-06 25.0337C 1.13387e-06 11.2079 11.2079 1.13387e-06 25.0339 1.13387e-06C 38.8596 1.13387e-06 50.0675 11.2079 50.0675 25.0337C 50.0675 38.8596 38.8596 50.0675 25.0339 50.0675Z" />
        <path id="pathInstagramFill1" d="M 11.7 5.84991C 11.7 2.61901 9.08081 -1.7008e-06 5.84991 -1.7008e-06C 2.6192 -1.7008e-06 -1.7008e-06 2.61901 -1.7008e-06 5.84991C -1.7008e-06 9.08081 2.6192 11.7 5.84991 11.7C 9.08081 11.7 11.7 9.08081 11.7 5.84991Z" />
    </defs>
</svg>
