<svg width="13" height="13" viewBox="0 0 13 13" version="1.1" xmlns="http://www.w3.org/2000/svg" xmlns:xlink="http://www.w3.org/1999/xlink">
    <g id="Canvas" transform="translate(48 -2162)">
        <g id="linkedin">
            <g id="pathLinkedin">
                <use xlink:href="#pathLinkedinill" transform="matrix(0.133333 0 0 -0.133333 -48 2175)" fill="#333333" />
            </g>
        </g>
    </g>
    <defs>
        <path id="pathLinkedinill" d="M 83.081 14.4169L 68.6296 14.4169L 68.6296 37.0439C 68.6296 42.4422 68.5307 49.3825 61.1152 49.3825C 53.5899 49.3825 52.4376 43.5038 52.4376 37.4348L 52.4376 14.4169L 37.987 14.4169L 37.987 60.9459L 51.8591 60.9459L 51.8591 54.5888L 52.0514 54.5888C 53.9808 58.2468 58.6983 62.1041 65.7339 62.1041C 80.3775 62.1041 83.081 52.4669 83.081 39.9394L 83.081 14.4169ZM 21.6897 67.3067C 17.0546 67.3067 13.3029 71.065 13.3029 75.6935C 13.3029 80.3179 17.0546 84.0757 21.6897 84.0757C 26.3125 84.0757 30.0695 80.3179 30.0695 75.6935C 30.0695 71.065 26.3125 67.3067 21.6897 67.3067L 21.6897 67.3067ZM 28.9172 14.4169L 14.4553 14.4169L 14.4553 60.9459L 28.9172 60.9459L 28.9172 14.4169ZM 90.2831 97.4986L 7.19655 97.4986C 3.22615 97.4986 0 94.3516 0 90.4713L 0 7.03548C 0 3.15183 3.22615 0 7.19655 0L 90.2831 0C 94.2602 0 97.5 3.15183 97.5 7.03548L 97.5 90.4713C 97.5 94.3516 94.2602 97.4986 90.2831 97.4986Z" />
    </defs>
</svg>
