<svg width="32" height="32" viewBox="0 0 32 32" version="1.1" xmlns="http://www.w3.org/2000/svg" xmlns:xlink="http://www.w3.org/1999/xlink">
    <g id="Canvas">
        <g id="play">
            <use xlink:href="#pathPlay" fill="#333333" />
        </g>
    </g>
    <defs>
        <path id="pathPlay" fill-rule="evenodd" d="M 12.8 23.2L 22.4 16L 12.8 8.8L 12.8 23.2ZM 16 0C 7.168 0 0 7.168 0 16C 0 24.832 7.168 32 16 32C 24.832 32 32 24.832 32 16C 32 7.168 24.832 0 16 0ZM 16 28.8C 8.944 28.8 3.2 23.056 3.2 16C 3.2 8.944 8.944 3.2 16 3.2C 23.056 3.2 28.8 8.944 28.8 16C 28.8 23.056 23.056 28.8 16 28.8Z" />
    </defs>
</svg>
